<?xml version="1.0" encoding="UTF-8"?>
<svg id="Calque_2" data-name="Calque 2" xmlns="http://www.w3.org/2000/svg" viewBox="0 0 413.95 841.89">
  <defs>
    <style>
      .cls-1 {
        stroke-width: 0px;
      }
    </style>
  </defs>
  <g id="Calque_1-2" data-name="Calque 1">
    <g>
      <path class="cls-1" d="M411.46,267.33h-.38V72.84c0-39.62-32.05-71.78-71.67-71.92L76.15,0c-.09,0-.17,0-.26,0C36.19,0,3.98,32.19,3.98,71.92v91.03h-1.48c-1.38,0-2.5,1.12-2.5,2.5v27.85c0,1.38,1.12,2.5,2.5,2.5h1.48v27.68h-1.48c-1.38,0-2.5,1.12-2.5,2.5v59.47c0,1.38,1.12,2.5,2.5,2.5h1.48v16.51h-1.48c-1.38,0-2.5,1.12-2.5,2.5v59.47c0,1.38,1.12,2.5,2.5,2.5h1.48v401.06c0,39.72,32.2,71.92,71.92,71.92h263.27c39.72,0,71.92-32.2,71.92-71.92v-401.38h.38c1.38,0,2.5-1.12,2.5-2.5v-96.27c0-1.38-1.12-2.5-2.5-2.5ZM391.68,769.97c0,28.96-23.56,52.52-52.52,52.52H75.9c-28.96,0-52.52-23.56-52.52-52.52V71.92c0-28.96,23.56-52.51,52.51-52.52h.19s263.27.92,263.27.92c28.86.1,52.33,23.66,52.33,52.52v697.14Z"/>
      <rect class="cls-1 DI" x="148.46" y="29.88" width="118" height="34.48" ry="17px"/>
    </g>
  </g>
</svg>